<svg aria-hidden="true" style="position: absolute; width: 0; height: 0; overflow: hidden;" version="1.1" xmlns="http://www.w3.org/2000/svg" xmlns:xlink="http://www.w3.org/1999/xlink">
<defs>
<symbol id="icon-arrow-blue" viewBox="0 0 6 32">
<path fill="#43ffd2" style="fill: var(--color1, #43ffd2)" d="M4.773 31.267v0zM5.246 32l-0.149-3.025-2.545 1.642 2.694 1.383zM5.030 0.376c-6.413 9.298-6.601 21.542-0.478 31.033l0.441-0.284c-6.009-9.313-5.824-21.327 0.469-30.451l-0.432-0.298z"></path>
</symbol>
<symbol id="icon-arrow-l" viewBox="0 0 427 32">
<path fill="#43ffd2" style="fill: var(--color1, #43ffd2)" d="M0 16l26.667 15.396v-30.792l-26.667 15.396zM426.667 13.333l-402.667-0v5.333l402.667 0v-5.333z"></path>
</symbol>
<symbol id="icon-arrow-left" viewBox="0 0 32 32">
<path fill="#fff" style="fill: var(--color2, #fff)" d="M20.543 24.209l-7.543-7.543 7.543-7.543 0.943 0.943-6.6 6.6 6.6 6.6-0.943 0.943z"></path>
</symbol>
<symbol id="icon-arrow-pink" viewBox="0 0 213 32">
<path fill="#d978ac" style="fill: var(--color3, #d978ac)" d="M213.333 16l-26.667-15.396v30.792l26.667-15.396zM0 18.667h189.333v-5.333h-189.333v5.333z"></path>
</symbol>
<symbol id="icon-arrow-r" viewBox="0 0 427 32">
<path fill="#43ffd2" style="fill: var(--color1, #43ffd2)" d="M426.667 16l-26.667-15.396v30.792l26.667-15.396zM0 18.667h402.667v-5.333h-402.667v5.333z"></path>
</symbol>
<symbol id="icon-down-arrow" viewBox="0 0 32 32">
<path fill="#fff" style="fill: var(--color2, #fff)" d="M14.904 26.092c0.122 0.178 0.286 0.323 0.477 0.423s0.403 0.153 0.619 0.153c0.216 0 0.428-0.052 0.619-0.153s0.355-0.246 0.477-0.423l12-17.333c0.139-0.2 0.22-0.434 0.235-0.677s-0.037-0.485-0.149-0.701c-0.113-0.216-0.283-0.396-0.491-0.522s-0.447-0.192-0.691-0.192h-24c-0.243 0.001-0.481 0.068-0.688 0.194s-0.377 0.306-0.49 0.522c-0.113 0.215-0.165 0.457-0.15 0.699s0.095 0.476 0.232 0.677l12 17.333z"></path>
</symbol>
<symbol id="icon-inst" viewBox="0 0 32 32">
<path fill="#43ffd2" style="fill: var(--color1, #43ffd2)" d="M15.985 10.657c-2.936 0-5.332 2.396-5.332 5.332s2.396 5.332 5.332 5.332c2.936 0 5.332-2.396 5.332-5.332s-2.396-5.332-5.332-5.332zM31.977 15.989c0-2.208 0.020-4.396-0.104-6.6-0.124-2.56 0.064-5.608-1.808-7.48-1.876-1.876-4.916-1.68-7.476-1.804-2.208-0.124-4.396-0.104-6.6-0.104-2.208 0-4.396-0.020-6.6 0.104-2.56 0.124-5.612-0.068-7.484 1.804-1.876 1.876-1.676 4.92-1.8 7.48-0.124 2.208-0.104 4.396-0.104 6.6s-0.020 4.396 0.104 6.6c0.124 2.56-0.072 5.608 1.8 7.48 1.876 1.876 4.924 1.68 7.484 1.804 2.208 0.124 4.396 0.104 6.6 0.104 2.208 0 4.396 0.020 6.6-0.104 2.56-0.124 5.604 0.068 7.476-1.804 1.876-1.876 1.684-4.92 1.808-7.48 0.128-2.204 0.104-4.392 0.104-6.6zM15.985 24.193c-4.54 0-8.204-3.664-8.204-8.204s3.664-8.204 8.204-8.204c4.54 0 8.204 3.664 8.204 8.204s-3.664 8.204-8.204 8.204zM24.525 9.365c-1.060 0-1.916-0.856-1.916-1.916s0.856-1.916 1.916-1.916c1.060 0 1.916 0.856 1.916 1.916 0 0.252-0.049 0.501-0.145 0.734s-0.237 0.444-0.415 0.622c-0.178 0.178-0.389 0.319-0.622 0.415s-0.482 0.146-0.734 0.145z"></path>
</symbol>
<symbol id="icon-logo" viewBox="0 0 16 32">
<path fill="#8a8686" style="fill: var(--color4, #8a8686)" d="M5.026 20.659c0 0.546 0.056 0.951 0.169 1.214 0.132 0.245 0.358 0.414 0.678 0.508 0.339 0.094 0.866 0.141 1.581 0.141h3.614c1.864 0 2.965-1.195 3.304-3.586 0-0.056 0.047-0.075 0.141-0.056 0.113 0 0.169 0.028 0.169 0.085-0.169 1.487-0.254 2.711-0.254 3.671 0 0.151-0.028 0.264-0.085 0.339-0.056 0.056-0.169 0.085-0.339 0.085h-12.988c-0.038 0-0.056-0.056-0.056-0.169s0.019-0.169 0.056-0.169c0.734 0 1.271-0.047 1.609-0.141 0.358-0.094 0.593-0.273 0.706-0.536 0.132-0.282 0.198-0.706 0.198-1.271v-13.073c0-0.565-0.066-0.979-0.198-1.242-0.113-0.264-0.348-0.442-0.706-0.536-0.339-0.113-0.875-0.169-1.609-0.169-0.038 0-0.056-0.056-0.056-0.169s0.019-0.169 0.056-0.169l1.384 0.028c0.791 0.038 1.412 0.056 1.864 0.056 0.508 0 1.158-0.019 1.948-0.056l1.327-0.028c0.038 0 0.056 0.056 0.056 0.169s-0.019 0.169-0.056 0.169c-0.734 0-1.28 0.056-1.638 0.169-0.339 0.094-0.574 0.282-0.706 0.565-0.113 0.264-0.169 0.678-0.169 1.242v12.932z"></path>
<path fill="#fff" style="fill: var(--color2, #fff)" d="M14.376 13.294c0 0.047-0.047 0.071-0.141 0.071-0.078 0-0.118-0.024-0.118-0.071 0-0.8-0.212-1.435-0.635-1.906s-0.98-0.706-1.671-0.706h-1.624c-0.58 0-1.012 0.039-1.294 0.118s-0.478 0.22-0.588 0.424c-0.11 0.204-0.165 0.518-0.165 0.941v5.176h2.565c0.8 0 1.365-0.118 1.694-0.353 0.329-0.251 0.494-0.674 0.494-1.271 0-0.031 0.047-0.047 0.141-0.047s0.141 0.016 0.141 0.047l-0.024 1.859c0 0.455 0.008 0.792 0.024 1.012l0.024 1.106c0 0.031-0.047 0.047-0.141 0.047s-0.141-0.016-0.141-0.047c0-0.706-0.173-1.2-0.518-1.482-0.329-0.282-0.925-0.424-1.788-0.424h-2.471v5.153c0 0.502 0.071 0.871 0.212 1.106 0.141 0.22 0.408 0.376 0.8 0.471 0.408 0.094 1.051 0.141 1.929 0.141 0.047 0 0.071 0.047 0.071 0.141s-0.024 0.141-0.071 0.141c-0.643 0-1.145-0.008-1.506-0.024l-2.047-0.024-1.553 0.024c-0.282 0.016-0.675 0.024-1.176 0.024-0.031 0-0.047-0.047-0.047-0.141s0.016-0.141 0.047-0.141c0.612 0 1.059-0.039 1.341-0.118 0.298-0.078 0.494-0.227 0.588-0.447 0.11-0.235 0.165-0.588 0.165-1.059v-10.894c0-0.471-0.055-0.816-0.165-1.035-0.094-0.22-0.29-0.369-0.588-0.447-0.282-0.094-0.729-0.141-1.341-0.141-0.031 0-0.047-0.047-0.047-0.141s0.016-0.141 0.047-0.141h9.318c0.141 0 0.212 0.071 0.212 0.212l0.047 2.847z"></path>
</symbol>
<symbol id="icon-main-phone" viewBox="0 0 32 32">
<path fill="#43ffd2" style="fill: var(--color1, #43ffd2)" d="M25.999 29.333c1.103 0 2-0.897 2-2v-4.667c0-1.103-0.897-2-2-2-1.56 0-3.093-0.245-4.56-0.729-0.351-0.111-0.725-0.124-1.082-0.039s-0.685 0.266-0.948 0.523l-1.92 1.92c-3.319-1.802-6.044-4.526-7.847-7.844l1.904-1.916c0.549-0.509 0.747-1.284 0.512-2.029-0.483-1.469-0.728-3.006-0.725-4.552 0-1.103-0.897-2-2-2h-4.667c-1.103 0-2 0.897-2 2 0 12.867 10.467 23.333 23.333 23.333zM4.666 5.333h4.667c0.177 0 0.346 0.070 0.471 0.195s0.195 0.295 0.195 0.471c0 1.703 0.267 3.375 0.791 4.96 0.039 0.115 0.043 0.239 0.013 0.356s-0.093 0.224-0.182 0.306l-2.608 2.621c2.183 4.304 5.407 7.528 9.731 9.729l2.599-2.6c0.089-0.088 0.2-0.15 0.321-0.179s0.248-0.026 0.367 0.011c1.595 0.528 3.267 0.795 4.969 0.795 0.367 0 0.667 0.3 0.667 0.667v4.667c0 0.367-0.3 0.667-0.667 0.667-12.131 0-22-9.869-22-22 0-0.177 0.070-0.346 0.195-0.471s0.295-0.195 0.471-0.195z"></path>
</symbol>
<symbol id="icon-search" viewBox="0 0 32 32">
<path fill="#fff" style="fill: var(--color2, #fff)" d="M28.354 27.646l-5.733-5.733c1.94-2.125 2.972-4.925 2.874-7.8s-1.317-5.599-3.397-7.587c-2.080-1.988-4.856-3.083-7.733-3.051s-5.628 1.19-7.662 3.224c-2.035 2.034-3.193 4.785-3.225 7.662s1.062 5.653 3.049 7.734c1.988 2.080 4.711 3.3 7.587 3.399s5.676-0.933 7.801-2.873l5.733 5.733c0.094 0.094 0.221 0.146 0.354 0.146s0.26-0.053 0.353-0.146c0.094-0.094 0.146-0.221 0.146-0.354s-0.053-0.26-0.146-0.354zM4.501 14.5c0-1.978 0.587-3.911 1.685-5.556s2.661-2.926 4.488-3.683c1.827-0.757 3.838-0.955 5.778-0.569s3.722 1.338 5.12 2.737c1.399 1.399 2.351 3.18 2.737 5.12s0.188 3.95-0.569 5.778c-0.757 1.827-2.039 3.389-3.683 4.488s-3.578 1.685-5.556 1.685c-2.651-0.003-5.193-1.057-7.068-2.932s-2.929-4.416-2.932-7.068z"></path>
</symbol>
<symbol id="icon-viber" viewBox="0 0 32 32">
<path fill="#43ffd2" style="fill: var(--color1, #43ffd2)" d="M26.654 32h-21.333c-2.667 0-3.369-0.391-4.149-1.172s-1.184-1.495-1.171-4.161v-21.333c0-2.667 0.39-3.38 1.171-4.161s1.483-1.172 4.149-1.172h21.333c1.103 0 2.685 0.017 4 1.333s1.315 2.896 1.315 4v21.333c0.018 2.667-0.39 3.38-1.171 4.161s-1.478 1.172-4.145 1.172zM9.991 12v-3c0-0.563-0.172-1.115-0.515-1.656s-0.723-0.927-1.139-1.156c-0.416-0.229-0.739-0.24-0.968-0.031l-2.279 2.313c-0.624 0.625-0.978 1.464-1.061 2.516s0.078 2.198 0.484 3.438c0.406 1.24 1.056 2.552 1.951 3.937s1.967 2.703 3.216 3.953 2.565 2.323 3.949 3.219c1.384 0.896 2.695 1.552 3.934 1.969s2.383 0.583 3.434 0.5c1.051-0.083 1.889-0.437 2.513-1.063l2.31-2.312c0.208-0.208 0.198-0.526-0.031-0.953s-0.614-0.813-1.155-1.156c-0.541-0.344-1.093-0.516-1.655-0.516h-2.997l-2.029 1.25c-0.937-0.25-2.092-0.927-3.465-2.031s-2.612-2.344-3.715-3.719-1.78-2.531-2.029-3.469l1.249-2.031zM21.916 17l2.029 0.344c-0.167-2.5-1.134-4.635-2.903-6.406s-3.892-2.74-6.369-2.906l0.312 2.031c1.811 0.229 3.361 0.99 4.652 2.281s2.050 2.844 2.279 4.656zM15.36 12.156l0.375 2.25c0.812 0.396 1.426 1.010 1.842 1.844l2.248 0.375c-0.271-1.104-0.806-2.057-1.608-2.859s-1.753-1.339-2.857-1.609zM13.987 4l0.343 2.031c2.081 0.042 4.001 0.589 5.76 1.641s3.163 2.458 4.215 4.219 1.597 3.682 1.639 5.766l2.029 0.344c0-1.896-0.369-3.708-1.108-5.438s-1.733-3.219-2.981-4.469c-1.249-1.25-2.737-2.245-4.464-2.984s-3.538-1.109-5.432-1.109z"></path>
</symbol>
<symbol id="icon-wa" viewBox="0 0 32 32">
<path fill="#43ffd2" style="fill: var(--color1, #43ffd2)" d="M31.452 7.566c-0.013-0.664-0.066-1.326-0.159-1.983-0.111-0.585-0.3-1.151-0.561-1.686-0.573-1.13-1.49-2.048-2.62-2.622-0.531-0.26-1.094-0.449-1.675-0.56-0.662-0.095-1.33-0.149-1.998-0.162-0.283-0.011-0.65-0.015-0.82-0.015l-15.232-0.005c-0.17 0-0.537 0.005-0.82 0.015-0.664 0.013-1.326 0.066-1.983 0.159-0.585 0.111-1.151 0.3-1.686 0.561-1.13 0.573-2.048 1.49-2.622 2.62-0.26 0.531-0.449 1.094-0.56 1.675-0.096 0.662-0.15 1.329-0.164 1.998-0.009 0.283-0.015 0.65-0.015 0.82l-0.003 15.231c0 0.17 0.005 0.537 0.015 0.82 0.013 0.664 0.066 1.326 0.159 1.983 0.111 0.584 0.3 1.151 0.561 1.686 0.573 1.13 1.49 2.048 2.62 2.622 0.531 0.26 1.094 0.448 1.675 0.56 0.662 0.095 1.33 0.149 1.998 0.162 0.283 0.011 0.65 0.015 0.82 0.015l15.232 0.003c0.17 0 0.537-0.005 0.82-0.015 0.664-0.013 1.326-0.066 1.983-0.159 0.584-0.111 1.151-0.3 1.686-0.561 1.131-0.572 2.050-1.49 2.623-2.62 0.26-0.531 0.448-1.094 0.56-1.675 0.096-0.662 0.15-1.329 0.164-1.998 0.009-0.283 0.015-0.65 0.015-0.82l0.002-15.23c0-0.17-0.005-0.537-0.015-0.82zM16.336 26.761h-0.005c-1.841-0-3.653-0.462-5.269-1.342l-5.846 1.533 1.565-5.712c-1.212-2.103-1.696-4.547-1.378-6.953s1.422-4.64 3.139-6.355 3.953-2.816 6.359-3.132c2.407-0.316 4.85 0.171 6.952 1.386s3.744 3.088 4.672 5.331c0.928 2.243 1.091 4.729 0.462 7.073s-2.013 4.416-3.939 5.893c-1.926 1.477-4.285 2.278-6.712 2.278z"></path>
<path fill="#43ffd2" style="fill: var(--color1, #43ffd2)" d="M16.341 6.567c-1.638-0-3.246 0.438-4.657 1.269s-2.574 2.026-3.367 3.459-1.188 3.052-1.143 4.689c0.045 1.637 0.527 3.232 1.397 4.62l0.218 0.346-0.926 3.381 3.469-0.909 0.334 0.198c1.412 0.836 3.023 1.278 4.665 1.278h0.005c2.431 0 4.763-0.965 6.482-2.684s2.685-4.050 2.686-6.481-0.965-4.763-2.684-6.482c-1.719-1.719-4.050-2.685-6.481-2.686l0.002 0.002zM21.73 19.667c-0.203 0.335-0.473 0.624-0.793 0.85s-0.683 0.382-1.067 0.461c-0.579 0.099-1.173 0.062-1.735-0.108-0.533-0.166-1.057-0.36-1.57-0.582-1.903-0.955-3.525-2.388-4.706-4.159-0.645-0.82-1.036-1.81-1.126-2.849-0.007-0.429 0.075-0.855 0.241-1.25s0.413-0.752 0.724-1.047c0.092-0.105 0.205-0.19 0.331-0.249s0.264-0.092 0.403-0.096c0.182 0 0.367 0 0.527 0.009 0.17 0.008 0.396-0.065 0.619 0.473 0.232 0.551 0.783 1.907 0.851 2.045 0.044 0.072 0.069 0.154 0.073 0.238s-0.013 0.168-0.050 0.244c-0.069 0.165-0.162 0.32-0.275 0.459-0.139 0.161-0.289 0.359-0.413 0.483-0.139 0.138-0.281 0.286-0.122 0.562 0.414 0.708 0.93 1.352 1.533 1.908 0.654 0.581 1.404 1.044 2.216 1.367 0.275 0.139 0.436 0.114 0.597-0.070s0.688-0.804 0.872-1.080c0.184-0.275 0.367-0.229 0.619-0.138s1.609 0.758 1.884 0.897c0.275 0.139 0.459 0.206 0.527 0.32 0.076 0.443 0.020 0.898-0.161 1.31z"></path>
</symbol>
<symbol id="icon-basket" viewBox="0 0 32 32">
<path fill="#fff" style="fill: var(--color1, #fff)" d="M29.373 25.835l-1.778-16c-0.040-0.367-0.215-0.706-0.49-0.952s-0.631-0.382-1.001-0.382h-4.629c-0.125-1.366-0.756-2.637-1.769-3.562s-2.336-1.438-3.708-1.438c-1.372 0-2.694 0.513-3.708 1.438s-1.644 2.195-1.769 3.562h-4.629c-0.369-0-0.726 0.136-1.001 0.382s-0.45 0.585-0.49 0.952l-1.778 16c-0.023 0.21-0.002 0.422 0.062 0.623s0.17 0.386 0.311 0.543c0.141 0.157 0.313 0.283 0.506 0.369s0.401 0.131 0.612 0.131h23.765c0.211 0 0.42-0.044 0.612-0.131s0.365-0.212 0.506-0.369 0.247-0.342 0.311-0.543c0.064-0.201 0.086-0.413 0.062-0.623zM16 4.5c1.106 0.001 2.174 0.41 2.998 1.148s1.349 1.753 1.473 2.852h-8.943c0.124-1.099 0.649-2.115 1.473-2.852s1.892-1.146 2.998-1.148zM28.255 26.334c-0.047 0.053-0.104 0.095-0.168 0.124s-0.134 0.043-0.204 0.043h-23.765c-0.070 0-0.14-0.015-0.204-0.044s-0.122-0.071-0.168-0.123-0.082-0.114-0.104-0.181c-0.021-0.067-0.028-0.138-0.021-0.208l1.778-16c0.013-0.122 0.072-0.235 0.163-0.317s0.21-0.127 0.334-0.127h4.605v3.5c0 0.133 0.053 0.26 0.146 0.354s0.221 0.146 0.354 0.146c0.133 0 0.26-0.053 0.354-0.146s0.146-0.221 0.146-0.354v-3.5h9v3.5c0 0.133 0.053 0.26 0.146 0.354s0.221 0.146 0.354 0.146c0.133 0 0.26-0.053 0.354-0.146s0.146-0.221 0.146-0.354v-3.5h4.605c0.123-0 0.242 0.045 0.334 0.127s0.15 0.195 0.163 0.317l1.778 16c0.008 0.070 0.001 0.141-0.020 0.208s-0.057 0.129-0.104 0.181z"></path>
</symbol>
</defs>
</svg>
